<svg xmlns="http://www.w3.org/2000/svg" width="256" height="256" viewBox="0 0 100 100">
<rect width="100" height="100" rx="20" fill="var(--accent)"/><path fill="#fff" d="M46.27 25.05L46.27 68.01L38.11 68.01L38.11 25.05L23.41 25.05L23.41 18.04L60.97 18.04L60.97 25.05L46.27 25.05ZM62.30 81.96L62.30 81.96Q58.96 81.96 56.70 81.10L56.70 81.10L56.70 74.23Q59.57 74.95 61.69 74.95L61.69 74.95Q68.39 74.95 68.39 66.47L68.39 66.47L68.39 18.04L76.59 18.04L76.59 66.20Q76.59 73.86 72.95 77.91Q69.31 81.96 62.30 81.96Z"/></svg>